<svg xmlns="http://www.w3.org/2000/svg" width="900" height="1200" viewBox="0 0 900 1200" role="img" aria-labelledby="title desc">
  <title id="title">ExoCrew 小红书发布图 2</title>
  <desc id="desc">这不是 Demo，它真的在企业端运行。真实运营 · 数据治理 · 企业业务信息推送</desc>
  <defs>
    <linearGradient id="bg" x1="0" y1="0" x2="1" y2="1">
      <stop offset="0" stop-color="#07111f"/>
      <stop offset="0.58" stop-color="#0b1830"/>
      <stop offset="1" stop-color="#111b36"/>
    </linearGradient>
    <radialGradient id="glow" cx="50%" cy="50%" r="50%">
      <stop offset="0" stop-color="#8b5cf6" stop-opacity="0.28"/>
      <stop offset="1" stop-color="#8b5cf6" stop-opacity="0"/>
    </radialGradient>
    <filter id="shadow" x="-20%" y="-20%" width="140%" height="140%">
      <feDropShadow dx="0" dy="12" stdDeviation="18" flood-color="#020617" flood-opacity="0.42"/>
    </filter>
  </defs>
  <rect width="900" height="1200" rx="0" fill="url(#bg)"/>
  <circle cx="468" cy="576" r="378" fill="url(#glow)"/>
  <g font-family="-apple-system,BlinkMacSystemFont,'Segoe UI','PingFang SC','Microsoft YaHei',Arial,sans-serif">
    <rect x="54" y="54" width="118" height="38" rx="19" fill="#8b5cf6" fill-opacity="0.18" stroke="#8b5cf6"/>
    <text x="113" y="80" fill="#f8fafc" font-size="16" font-weight="700" text-anchor="middle">02 / 06</text>
    <text x="846" y="80" fill="#9aabc2" font-size="16" text-anchor="end">真实生产来源</text>
    <text x="54" y="182" fill="#f8fafc" font-size="54" font-weight="700" text-anchor="start">这不是 Demo</text>
<text x="54" y="252" fill="#f8fafc" font-size="54" font-weight="700" text-anchor="start">它真的在企业端运行</text>
    <text x="54" y="334" fill="#9aabc2" font-size="22" font-weight="400" text-anchor="start">真实运营 · 数据治理 · 企业业务信息推送</text>
        <rect x="54" y="414" width="792" height="64" rx="20" fill="#2dd4bf" fill-opacity="0.12" stroke="#2dd4bf"/>
    <circle cx="92" cy="446" r="12" fill="#2dd4bf"/>
    <text x="121" y="454" fill="#f8fafc" font-size="22" font-weight="700">PRODUCTION · ACTIVE OPERATIONS</text>
    <rect x="54" y="520" width="378" height="154" rx="22" fill="#101d33" stroke="#8b5cf6" stroke-opacity="0.62"/>
      <text x="82" y="586" fill="#f8fafc" font-size="42" font-weight="700">361,670</text>
      <text x="82" y="628" fill="#9aabc2" font-size="19">行运行与测试源码</text>
<rect x="459" y="520" width="378" height="154" rx="22" fill="#101d33" stroke="#3b82f6" stroke-opacity="0.62"/>
      <text x="487" y="586" fill="#f8fafc" font-size="42" font-weight="700">1,869</text>
      <text x="487" y="628" fill="#9aabc2" font-size="19">次主线提交</text>
<rect x="54" y="704" width="378" height="154" rx="22" fill="#101d33" stroke="#2dd4bf" stroke-opacity="0.62"/>
      <text x="82" y="770" fill="#f8fafc" font-size="42" font-weight="700">466</text>
      <text x="82" y="812" fill="#9aabc2" font-size="19">个测试文件</text>
<rect x="459" y="704" width="378" height="154" rx="22" fill="#101d33" stroke="#f59e0b" stroke-opacity="0.62"/>
      <text x="487" y="770" fill="#f8fafc" font-size="42" font-weight="700">125 + 145</text>
      <text x="487" y="812" fill="#9aabc2" font-size="19">数据模型 + 数据库迁移</text>
    <text x="54" y="951" fill="#f8fafc" font-size="23" font-weight="700">每一个数字，都是系统真正运行过的痕迹。</text>
    <line x1="54" y1="1094" x2="846" y2="1094" stroke="#2a3b57"/>
    <text x="54" y="1144" fill="#f8fafc" font-size="20" font-weight="700">EXOCREW</text>
    <text x="846" y="1144" fill="#9aabc2" font-size="16" text-anchor="end">Git 首尾留痕 139 个自然日</text>
  </g>
</svg>
