<svg xmlns="http://www.w3.org/2000/svg" width="900" height="1200" viewBox="0 0 900 1200" role="img" aria-labelledby="title desc">
  <title id="title">ExoCrew 小红书发布图 4</title>
  <desc id="desc">从需求到上线，按这 9 步检查。下一次让 AI 改项目时，按顺序走一遍。</desc>
  <defs>
    <linearGradient id="bg" x1="0" y1="0" x2="1" y2="1">
      <stop offset="0" stop-color="#07111f"/>
      <stop offset="0.58" stop-color="#0b1830"/>
      <stop offset="1" stop-color="#111b36"/>
    </linearGradient>
    <radialGradient id="glow" cx="50%" cy="50%" r="50%">
      <stop offset="0" stop-color="#8b5cf6" stop-opacity="0.28"/>
      <stop offset="1" stop-color="#8b5cf6" stop-opacity="0"/>
    </radialGradient>
    <filter id="shadow" x="-20%" y="-20%" width="140%" height="140%">
      <feDropShadow dx="0" dy="12" stdDeviation="18" flood-color="#020617" flood-opacity="0.42"/>
    </filter>
  </defs>
  <rect width="900" height="1200" rx="0" fill="url(#bg)"/>
  <circle cx="468" cy="576" r="378" fill="url(#glow)"/>
  <g font-family="-apple-system,BlinkMacSystemFont,'Segoe UI','PingFang SC','Microsoft YaHei',Arial,sans-serif">
    <rect x="54" y="54" width="118" height="38" rx="19" fill="#8b5cf6" fill-opacity="0.18" stroke="#8b5cf6"/>
    <text x="113" y="80" fill="#f8fafc" font-size="16" font-weight="700" text-anchor="middle">04 / 06</text>
    <text x="846" y="80" fill="#9aabc2" font-size="16" text-anchor="end">建议直接收藏</text>
    <text x="54" y="182" fill="#f8fafc" font-size="54" font-weight="700" text-anchor="start">从需求到上线</text>
<text x="54" y="252" fill="#f8fafc" font-size="54" font-weight="700" text-anchor="start">按这 9 步检查</text>
    <text x="54" y="334" fill="#9aabc2" font-size="22" font-weight="400" text-anchor="start">下一次让 AI 改项目时，按顺序走一遍。</text>
        <rect x="54" y="458" width="252" height="142" rx="20" fill="#101d33" stroke="#8b5cf6" stroke-opacity="0.52"/>
      <rect x="72" y="476" width="46" height="28" rx="14" fill="#8b5cf6" fill-opacity="0.18" stroke="#8b5cf6"/>
      <text x="95" y="496" fill="#f8fafc" font-size="13" font-weight="700" text-anchor="middle">01</text>
      <text x="72" y="540" fill="#f8fafc" font-size="20" font-weight="700">任务合同</text>
      <text x="72" y="571" fill="#9aabc2" font-size="14">目标与验收</text>
<rect x="324" y="458" width="252" height="142" rx="20" fill="#101d33" stroke="#22d3ee" stroke-opacity="0.52"/>
      <rect x="342" y="476" width="46" height="28" rx="14" fill="#22d3ee" fill-opacity="0.18" stroke="#22d3ee"/>
      <text x="365" y="496" fill="#f8fafc" font-size="13" font-weight="700" text-anchor="middle">02</text>
      <text x="342" y="540" fill="#f8fafc" font-size="20" font-weight="700">只读勘察</text>
      <text x="342" y="571" fill="#9aabc2" font-size="14">架构与影响面</text>
<rect x="594" y="458" width="252" height="142" rx="20" fill="#101d33" stroke="#fb7185" stroke-opacity="0.52"/>
      <rect x="612" y="476" width="46" height="28" rx="14" fill="#fb7185" fill-opacity="0.18" stroke="#fb7185"/>
      <text x="635" y="496" fill="#f8fafc" font-size="13" font-weight="700" text-anchor="middle">03</text>
      <text x="612" y="540" fill="#f8fafc" font-size="20" font-weight="700">安全边界</text>
      <text x="612" y="571" fill="#9aabc2" font-size="14">数据与外部写入</text>
<rect x="54" y="622" width="252" height="142" rx="20" fill="#101d33" stroke="#3b82f6" stroke-opacity="0.52"/>
      <rect x="72" y="640" width="46" height="28" rx="14" fill="#3b82f6" fill-opacity="0.18" stroke="#3b82f6"/>
      <text x="95" y="660" fill="#f8fafc" font-size="13" font-weight="700" text-anchor="middle">04</text>
      <text x="72" y="704" fill="#f8fafc" font-size="20" font-weight="700">最小实现</text>
      <text x="72" y="735" fill="#9aabc2" font-size="14">先守住真相源</text>
<rect x="324" y="622" width="252" height="142" rx="20" fill="#101d33" stroke="#2dd4bf" stroke-opacity="0.52"/>
      <rect x="342" y="640" width="46" height="28" rx="14" fill="#2dd4bf" fill-opacity="0.18" stroke="#2dd4bf"/>
      <text x="365" y="660" fill="#f8fafc" font-size="13" font-weight="700" text-anchor="middle">05</text>
      <text x="342" y="704" fill="#f8fafc" font-size="20" font-weight="700">完整测试</text>
      <text x="342" y="735" fill="#9aabc2" font-size="14">正常异常边界</text>
<rect x="594" y="622" width="252" height="142" rx="20" fill="#101d33" stroke="#f59e0b" stroke-opacity="0.52"/>
      <rect x="612" y="640" width="46" height="28" rx="14" fill="#f59e0b" fill-opacity="0.18" stroke="#f59e0b"/>
      <text x="635" y="660" fill="#f8fafc" font-size="13" font-weight="700" text-anchor="middle">06</text>
      <text x="612" y="704" fill="#f8fafc" font-size="20" font-weight="700">浏览器验收</text>
      <text x="612" y="735" fill="#9aabc2" font-size="14">控制台与移动端</text>
<rect x="54" y="786" width="252" height="142" rx="20" fill="#101d33" stroke="#8b5cf6" stroke-opacity="0.52"/>
      <rect x="72" y="804" width="46" height="28" rx="14" fill="#8b5cf6" fill-opacity="0.18" stroke="#8b5cf6"/>
      <text x="95" y="824" fill="#f8fafc" font-size="13" font-weight="700" text-anchor="middle">07</text>
      <text x="72" y="868" fill="#f8fafc" font-size="20" font-weight="700">交叉审核</text>
      <text x="72" y="899" fill="#9aabc2" font-size="14">架构测试安全</text>
<rect x="324" y="786" width="252" height="142" rx="20" fill="#101d33" stroke="#22d3ee" stroke-opacity="0.52"/>
      <rect x="342" y="804" width="46" height="28" rx="14" fill="#22d3ee" fill-opacity="0.18" stroke="#22d3ee"/>
      <text x="365" y="824" fill="#f8fafc" font-size="13" font-weight="700" text-anchor="middle">08</text>
      <text x="342" y="868" fill="#f8fafc" font-size="20" font-weight="700">Git 发布</text>
      <text x="342" y="899" fill="#9aabc2" font-size="14">小提交与回滚点</text>
<rect x="594" y="786" width="252" height="142" rx="20" fill="#101d33" stroke="#2dd4bf" stroke-opacity="0.52"/>
      <rect x="612" y="804" width="46" height="28" rx="14" fill="#2dd4bf" fill-opacity="0.18" stroke="#2dd4bf"/>
      <text x="635" y="824" fill="#f8fafc" font-size="13" font-weight="700" text-anchor="middle">09</text>
      <text x="612" y="868" fill="#f8fafc" font-size="20" font-weight="700">线上闭环</text>
      <text x="612" y="899" fill="#9aabc2" font-size="14">监控回滚复盘</text>
    <rect x="170" y="974" width="560" height="66" rx="33" fill="#8b5cf6" fill-opacity="0.18" stroke="#8b5cf6"/>
    <text x="450" y="1016" fill="#f8fafc" font-size="20" font-weight="700" text-anchor="middle">少一步，都可能把风险留到上线后</text>
    <line x1="54" y1="1094" x2="846" y2="1094" stroke="#2a3b57"/>
    <text x="54" y="1144" fill="#f8fafc" font-size="20" font-weight="700">EXOCREW</text>
    <text x="846" y="1144" fill="#9aabc2" font-size="16" text-anchor="end">每一步都有验收与回滚</text>
  </g>
</svg>
