<svg xmlns="http://www.w3.org/2000/svg" width="900" height="1200" viewBox="0 0 900 1200" role="img" aria-labelledby="title desc">
  <title id="title">ExoCrew 小红书发布图 2</title>
  <desc id="desc">Agent 负责写和执行，ExoCrew 负责，把事情真正交付。不是替代 Codex，而是给它装上完整交付纪律</desc>
  <defs>
    <linearGradient id="bg" x1="0" y1="0" x2="1" y2="1">
      <stop offset="0" stop-color="#07111f"/>
      <stop offset="0.58" stop-color="#0b1830"/>
      <stop offset="1" stop-color="#111b36"/>
    </linearGradient>
    <radialGradient id="glow" cx="50%" cy="50%" r="50%">
      <stop offset="0" stop-color="#8b5cf6" stop-opacity="0.28"/>
      <stop offset="1" stop-color="#8b5cf6" stop-opacity="0"/>
    </radialGradient>
    <filter id="shadow" x="-20%" y="-20%" width="140%" height="140%">
      <feDropShadow dx="0" dy="12" stdDeviation="18" flood-color="#020617" flood-opacity="0.42"/>
    </filter>
  </defs>
  <rect width="900" height="1200" rx="0" fill="url(#bg)"/>
  <circle cx="468" cy="576" r="378" fill="url(#glow)"/>
  <g font-family="-apple-system,BlinkMacSystemFont,'Segoe UI','PingFang SC','Microsoft YaHei',Arial,sans-serif">
    <rect x="54" y="54" width="118" height="38" rx="19" fill="#8b5cf6" fill-opacity="0.18" stroke="#8b5cf6"/>
    <text x="113" y="80" fill="#f8fafc" font-size="16" font-weight="700" text-anchor="middle">02 / 03</text>
    <text x="846" y="80" fill="#9aabc2" font-size="16" text-anchor="end">ExoCrew 在哪里起作用</text>
    <text x="54" y="182" fill="#f8fafc" font-size="54" font-weight="700" text-anchor="start">Agent 负责写和执行</text>
<text x="54" y="252" fill="#f8fafc" font-size="54" font-weight="700" text-anchor="start">ExoCrew 负责</text>
<text x="54" y="322" fill="#f8fafc" font-size="54" font-weight="700" text-anchor="start">把事情真正交付</text>
    <text x="54" y="404" fill="#9aabc2" font-size="22" font-weight="400" text-anchor="start">不是替代 Codex，而是给它装上完整交付纪律</text>
        <rect x="74" y="448" width="752" height="106" rx="24" fill="#22d3ee" fill-opacity="0.12" stroke="#22d3ee"/>
    <text x="450" y="490" fill="#f8fafc" font-size="24" font-weight="700" text-anchor="middle">CODING AGENT</text>
    <text x="450" y="526" fill="#9aabc2" font-size="17" text-anchor="middle">读取仓库 · 修改文件 · 运行命令 · 调用工具</text>
    <path d="M450 554 L450 615" stroke="#2a3b57" stroke-width="4"/><path d="M438 602 L450 616 L462 602" fill="none" stroke="#8b5cf6" stroke-width="3"/>
    <rect x="54" y="618" width="792" height="240" rx="28" fill="#8b5cf6" fill-opacity="0.20" stroke="#8b5cf6" stroke-width="3" filter="url(#shadow)"/>
    <text x="450" y="674" fill="#f8fafc" font-size="29" font-weight="700" text-anchor="middle">EXOCREW · 生产交付 HARNESS</text>
    <circle cx="164" cy="748" r="48" fill="#22d3ee" fill-opacity="0.16" stroke="#22d3ee"/><text x="164" y="755" fill="#f8fafc" font-size="16" font-weight="700" text-anchor="middle">产品边界</text>
<circle cx="307" cy="748" r="48" fill="#3b82f6" fill-opacity="0.16" stroke="#3b82f6"/><text x="307" y="755" fill="#f8fafc" font-size="16" font-weight="700" text-anchor="middle">工程门禁</text>
<circle cx="450" cy="748" r="48" fill="#2dd4bf" fill-opacity="0.16" stroke="#2dd4bf"/><text x="450" y="755" fill="#f8fafc" font-size="16" font-weight="700" text-anchor="middle">测试证据</text>
<circle cx="593" cy="748" r="48" fill="#f59e0b" fill-opacity="0.16" stroke="#f59e0b"/><text x="593" y="755" fill="#f8fafc" font-size="16" font-weight="700" text-anchor="middle">安全运维</text>
<circle cx="736" cy="748" r="48" fill="#8b5cf6" fill-opacity="0.16" stroke="#8b5cf6"/><text x="736" y="755" fill="#f8fafc" font-size="16" font-weight="700" text-anchor="middle">交付收口</text>
    <text x="450" y="826" fill="#9aabc2" font-size="16" text-anchor="middle">Codex 原生安装 · 五个可执行 Skills · 从真实生产交付提炼</text>
    <path d="M450 858 L450 917" stroke="#2a3b57" stroke-width="4"/><path d="M438 904 L450 918 L462 904" fill="none" stroke="#2dd4bf" stroke-width="3"/>
    <rect x="150" y="920" width="600" height="86" rx="43" fill="#2dd4bf" fill-opacity="0.14" stroke="#2dd4bf"/>
    <text x="450" y="974" fill="#f8fafc" font-size="24" font-weight="700" text-anchor="middle">有边界 · 有证据 · 能发布 · 能回滚</text>
    <line x1="54" y1="1094" x2="846" y2="1094" stroke="#2a3b57"/>
    <text x="54" y="1144" fill="#f8fafc" font-size="20" font-weight="700">EXOCREW</text>
    <text x="846" y="1144" fill="#9aabc2" font-size="16" text-anchor="end">github.com/denelwu-GH/exocrew</text>
  </g>
</svg>
