<svg xmlns="http://www.w3.org/2000/svg" width="1200" height="660" viewBox="0 0 1200 660" role="img" aria-labelledby="title desc">
  <title id="title">ExoCrew 在 AI 软件交付生态中的位置</title>
  <desc id="desc">Harness Engineering 是模型周围的完整系统；ExoCrew 提供其中可安装的交付纪律与证据层。</desc>
  <defs>
    <linearGradient id="bg" x1="0" y1="0" x2="1" y2="1">
      <stop offset="0" stop-color="#07111f"/>
      <stop offset="0.58" stop-color="#0b1830"/>
      <stop offset="1" stop-color="#111b36"/>
    </linearGradient>
    <radialGradient id="glow" cx="50%" cy="50%" r="50%">
      <stop offset="0" stop-color="#8b5cf6" stop-opacity="0.28"/>
      <stop offset="1" stop-color="#8b5cf6" stop-opacity="0"/>
    </radialGradient>
    <filter id="shadow" x="-20%" y="-20%" width="140%" height="140%">
      <feDropShadow dx="0" dy="12" stdDeviation="18" flood-color="#020617" flood-opacity="0.42"/>
    </filter>
  </defs>
  <rect width="1200" height="660" rx="30" fill="url(#bg)"/>
  <circle cx="624" cy="317" r="277" fill="url(#glow)"/>
  <g font-family="-apple-system,BlinkMacSystemFont,'Segoe UI','PingFang SC','Microsoft YaHei',Arial,sans-serif">
    <text x="54" y="66" fill="#f8fafc" font-size="32" font-weight="700" text-anchor="start">ExoCrew 在 AI 软件交付生态中的位置</text>
    <text x="54" y="101" fill="#9aabc2" font-size="16" font-weight="400" text-anchor="start">模型提供智能，编程代理执行动作，ExoCrew 约束交付，流水线执行发布</text>

    <text x="123" y="170" fill="#9aabc2" font-size="12" font-weight="700" text-anchor="middle">上下文与能力机制</text>
    <rect x="42" y="190" width="162" height="290" rx="22" fill="#101d33" stroke="#22d3ee" stroke-opacity="0.45"/>
    <rect x="48" y="222" width="150" height="34" rx="17" fill="#22d3ee" fill-opacity="0.12" stroke="#22d3ee" stroke-opacity="0.5"/>
      <text x="123" y="244" fill="#f8fafc" font-size="12" font-weight="700" text-anchor="middle">Agent Skills</text>
<rect x="48" y="270" width="150" height="34" rx="17" fill="#22d3ee" fill-opacity="0.12" stroke="#22d3ee" stroke-opacity="0.5"/>
      <text x="123" y="292" fill="#f8fafc" font-size="12" font-weight="700" text-anchor="middle">AGENTS.md</text>
<rect x="48" y="318" width="150" height="34" rx="17" fill="#22d3ee" fill-opacity="0.12" stroke="#22d3ee" stroke-opacity="0.5"/>
      <text x="123" y="340" fill="#f8fafc" font-size="12" font-weight="700" text-anchor="middle">Rules</text>
<rect x="48" y="366" width="150" height="34" rx="17" fill="#22d3ee" fill-opacity="0.12" stroke="#22d3ee" stroke-opacity="0.5"/>
      <text x="123" y="388" fill="#f8fafc" font-size="12" font-weight="700" text-anchor="middle">MCP / Tools</text>

    <text x="1077" y="170" fill="#9aabc2" font-size="12" font-weight="700" text-anchor="middle">互补方法与工作流</text>
    <rect x="996" y="190" width="162" height="290" rx="22" fill="#101d33" stroke="#f59e0b" stroke-opacity="0.45"/>
    <rect x="1002" y="222" width="150" height="34" rx="17" fill="#f59e0b" fill-opacity="0.12" stroke="#f59e0b" stroke-opacity="0.5"/>
      <text x="1077" y="244" fill="#f8fafc" font-size="12" font-weight="700" text-anchor="middle">Spec Kit</text>
<rect x="1002" y="270" width="150" height="34" rx="17" fill="#f59e0b" fill-opacity="0.12" stroke="#f59e0b" stroke-opacity="0.5"/>
      <text x="1077" y="292" fill="#f8fafc" font-size="12" font-weight="700" text-anchor="middle">OpenSpec</text>
<rect x="1002" y="318" width="150" height="34" rx="17" fill="#f59e0b" fill-opacity="0.12" stroke="#f59e0b" stroke-opacity="0.5"/>
      <text x="1077" y="340" fill="#f8fafc" font-size="12" font-weight="700" text-anchor="middle">BMAD</text>
<rect x="1002" y="366" width="150" height="34" rx="17" fill="#f59e0b" fill-opacity="0.12" stroke="#f59e0b" stroke-opacity="0.5"/>
      <text x="1077" y="388" fill="#f8fafc" font-size="12" font-weight="700" text-anchor="middle">Superpowers</text>

    <rect x="238" y="142" width="724" height="68" rx="18" fill="#101d33" stroke="#64748b"/>
    <text x="268" y="173" fill="#f8fafc" font-size="17" font-weight="700">基础模型</text>
    <text x="268" y="194" fill="#9aabc2" font-size="13">推理 · 生成 · 判断</text>

    <path d="M600 210 L600 230" stroke="#2a3b57" stroke-width="3"/><path d="M592 222 L600 231 L608 222" fill="none" stroke="#22d3ee" stroke-width="2"/>
    <rect x="238" y="232" width="724" height="78" rx="18" fill="#101d33" stroke="#22d3ee" stroke-opacity="0.65"/>
    <text x="268" y="265" fill="#f8fafc" font-size="17" font-weight="700">AI 编程代理</text>
    <text x="268" y="290" fill="#9aabc2" font-size="13">Codex · Claude Code · Cursor · Copilot · OpenCode</text>

    <path d="M600 310 L600 332" stroke="#2a3b57" stroke-width="3"/><path d="M592 324 L600 333 L608 324" fill="none" stroke="#8b5cf6" stroke-width="2"/>
    <rect x="224" y="334" width="752" height="124" rx="24" fill="#8b5cf6" fill-opacity="0.17" stroke="#8b5cf6" stroke-width="3" filter="url(#shadow)"/>
    <text x="600" y="375" fill="#f8fafc" font-size="21" font-weight="700" text-anchor="middle">EXOCREW · 生产交付 HARNESS</text>
    <text x="600" y="405" fill="#f8fafc" font-size="13" text-anchor="middle">产品边界 · 工程门禁 · 测试证据 · 安全运维 · 交付收口</text>
    <rect x="457" y="420" width="286" height="24" rx="12" fill="#2dd4bf" fill-opacity="0.14" stroke="#2dd4bf" stroke-opacity="0.65"/>
    <text x="600" y="437" fill="#f8fafc" font-size="11" font-weight="700" text-anchor="middle">CODEX 原生安装 · 其它工具为生态对比</text>

    <path d="M600 458 L600 480" stroke="#2a3b57" stroke-width="3"/><path d="M592 472 L600 481 L608 472" fill="none" stroke="#2dd4bf" stroke-width="2"/>
    <rect x="238" y="482" width="724" height="78" rx="18" fill="#101d33" stroke="#2dd4bf" stroke-opacity="0.65"/>
    <text x="268" y="515" fill="#f8fafc" font-size="17" font-weight="700">CI/CD 与软件交付平台</text>
    <text x="268" y="540" fill="#9aabc2" font-size="13">GitHub Actions · Harness.io · 你的发布体系</text>

    <line x1="42" y1="594" x2="1158" y2="594" stroke="#2a3b57"/>
    <text x="600" y="628" fill="#f8fafc" font-size="14" font-weight="700" text-anchor="middle">Harness Engineering 是模型周围的完整系统；ExoCrew 提供其中可安装的交付纪律与证据层。</text>
  </g>
</svg>
